<?xml version="1.0" encoding="UTF-8"?>
<svg id="Layer_2" data-name="Layer 2" xmlns="http://www.w3.org/2000/svg" xmlns:xlink="http://www.w3.org/1999/xlink" viewBox="0 0 140 140">
  <defs>
    <style>
      .cls-1 {
        fill: none;
      }

      .cls-2 {
        fill-rule: evenodd;
      }

      .cls-2, .cls-3 {
        fill: #fff;
      }

      .cls-4 {
        fill: #162667;
      }

      .cls-5 {
        fill: #aa1731;
      }

      .cls-6 {
        clip-path: url(#clippath);
      }
    </style>
    <clipPath id="clippath">
      <circle class="cls-1" cx="70" cy="70" r="70"/>
    </clipPath>
  </defs>
  <g id="Layer_1-2" data-name="Layer 1">
    <g class="cls-6">
      <g>
        <g>
          <polygon class="cls-4" points="45.48 0 -40.87 0 45.48 43.05 45.48 0"/>
          <polygon class="cls-4" points="92.03 42.95 178.17 0 92.03 0 92.03 42.95 92.03 42.95"/>
          <polygon class="cls-4" points="92.03 97.33 92.03 140 177.6 140 92.03 97.33 92.03 97.33"/>
          <polygon class="cls-4" points="-40.3 140 45.48 140 45.48 97.23 -40.3 140"/>
        </g>
        <g>
          <g>
            <polygon class="cls-2" points="208.76 0 208.76 15.82 146.41 46.91 128.18 56 99.81 70.14 99.81 70.14 95.1 72.49 92.03 74.02 83.99 78.03 82.94 78.55 72.02 84 68.65 85.68 54.57 92.7 53.78 93.09 45.49 97.23 -40.3 140 -71.24 140 -71.24 124.35 -8.54 93.09 9.69 84 37.49 70.14 37.49 70.14 42.51 67.64 42.51 67.64 45.49 66.16 53.62 62.1 53.63 62.1 54.57 61.62 65.85 56 68.65 54.61 82.94 47.48 84.09 46.91 92.03 42.95 178.17 0 208.76 0"/>
            <polygon class="cls-2" points="208.76 124.46 208.76 140 177.6 140 92.03 97.33 83.52 93.09 82.94 92.8 68.65 85.68 65.28 84 63.73 83.23 54.57 78.66 52.98 77.86 45.49 74.13 37.49 70.14 37.49 70.14 9.13 56 -9.11 46.91 -71.24 15.93 -71.24 0 -40.87 0 45.49 43.06 53.21 46.91 54.57 47.59 68.65 54.61 71.45 56 73.47 57.01 82.94 61.73 84.23 62.37 92.03 66.26 99.81 70.14 99.81 70.14 127.61 84 145.84 93.09 208.76 124.46"/>
          </g>
          <g>
            <polygon class="cls-5" points="68.76 69.64 68.76 80.72 68.75 80.72 63.73 83.23 62.18 84 54.57 87.79 45.49 92.32 43.95 93.09 -50.14 140 -71.24 140 -71.24 139.8 22.43 93.09 40.66 84 45.49 81.6 52.98 77.86 54.57 77.06 58 75.36 54.57 73.65 45.49 69.12 42.51 67.64 42.51 67.64 19.17 56 .93 46.91 -71.24 10.92 -71.24 0 -70.92 0 23.16 46.91 41.4 56 45.49 58.04 53.62 62.1 53.63 62.1 54.57 62.57 68.76 69.64"/>
            <polygon class="cls-5" points="82.94 63.01 79.52 64.72 82.94 66.42 92.03 70.96 95.1 72.49 118.19 84 136.42 93.09 208.76 129.16 208.76 140 208.28 140 114.2 93.09 95.96 84 92.03 82.04 83.99 78.03 82.94 77.51 68.76 70.44 68.76 59.36 68.76 59.35 73.47 57.01 75.49 56 82.94 52.28 92.03 47.75 93.72 46.91 187.81 0 208.76 0 208.76 .28 115.24 46.91 97.01 56 92.03 58.48 84.23 62.37 82.94 63.01"/>
          </g>
        </g>
        <g>
          <g>
            <rect id="_1:2" data-name="1:2" class="cls-3" x="45.48" width="46.55" height="140"/>
            <rect id="_1:2-2" data-name="1:2" class="cls-3" x="-71.24" y="46.91" width="280" height="46.18"/>
          </g>
          <g>
            <rect id="_1:2-3" data-name="1:2" class="cls-5" x="54.58" width="28.36" height="140"/>
            <rect id="_1:2-4" data-name="1:2" class="cls-5" x="-71.24" y="56" width="280" height="28"/>
          </g>
        </g>
      </g>
    </g>
  </g>
</svg>