<?xml version="1.0" encoding="UTF-8"?>
<svg id="Layer_2" data-name="Layer 2" xmlns="http://www.w3.org/2000/svg" xmlns:xlink="http://www.w3.org/1999/xlink" viewBox="0 0 140 140">
  <defs>
    <style>
      .cls-1 {
        fill: none;
      }

      .cls-2 {
        fill: #213ba3;
      }

      .cls-3 {
        fill: #fff;
      }

      .cls-4 {
        fill: #efcf37;
      }

      .cls-5 {
        fill: #6e410f;
      }

      .cls-6 {
        clip-path: url(#clippath);
      }
    </style>
    <clipPath id="clippath">
      <circle class="cls-1" cx="70" cy="70" r="70" transform="translate(-28.99 70) rotate(-45)"/>
    </clipPath>
  </defs>
  <g id="Layer_1-2" data-name="Layer 1">
    <g class="cls-6">
      <g>
        <g>
          <g>
            <rect class="cls-3" width="210" height="15.56"/>
            <rect class="cls-3" y="31.11" width="210" height="15.56"/>
            <rect class="cls-3" y="62.22" width="210" height="15.56"/>
            <rect class="cls-3" y="93.33" width="210" height="15.56"/>
            <rect class="cls-3" y="124.44" width="210" height="15.56"/>
          </g>
          <g>
            <rect class="cls-2" x="78.08" y="15.56" width="131.92" height="15.56"/>
            <rect class="cls-2" x="78.08" y="46.67" width="131.92" height="15.56"/>
            <rect class="cls-2" x="0" y="77.78" width="210" height="15.56"/>
            <rect class="cls-2" x="0" y="108.89" width="210" height="15.56"/>
          </g>
          <rect class="cls-3" x="0" width="78.08" height="77.78"/>
        </g>
        <g>
          <g>
            <g>
              <g>
                <path class="cls-5" d="M43.75,21.21c-1.43,2.77-2.59,2.82-2.59,2.82l-.52,7.42s.03,0,.07,0c1.35-1.04,3.03-2.65,3.92-4.75,3.37-6.29,1.14-12.81,6.33-15.15,0,0-1.6.07-3.61,1.83-2.01,1.76-1.92,4.58-3.6,7.82Z"/>
                <path class="cls-5" d="M50.95,11.36c-.07,0-1.69.1-3.73,1.88-1.24,1.09-1.7,2.55-2.24,4.25-.35,1.1-.74,2.34-1.4,3.63-1.34,2.59-2.42,2.71-2.42,2.71-.1,0-.18.09-.19.19l-.52,7.42c0,.11.07.2.18.21h.08s0,0,.01,0c.04,0,.09-.02.12-.04,1.91-1.47,3.25-3.1,3.98-4.82,1.39-2.61,1.84-5.26,2.23-7.6.58-3.42,1.03-6.12,4-7.46.09-.04.14-.14.11-.23-.02-.09-.11-.16-.21-.16ZM46.65,19.13c-.39,2.31-.83,4.93-2.2,7.48,0,0,0,.01,0,.02-.67,1.58-1.87,3.07-3.58,4.44l.49-6.89c.4-.12,1.42-.65,2.58-2.89.68-1.32,1.08-2.58,1.43-3.69.52-1.64.96-3.05,2.12-4.07.76-.67,1.47-1.09,2.04-1.35-1.98,1.58-2.4,4.1-2.88,6.94Z"/>
              </g>
              <g>
                <path class="cls-4" d="M44.63,26.71c-.89,2.1-2.57,3.7-3.92,4.75.49.03,3.38.09,5.15-2.42,1.94-2.75,3.16-7.97,2.57-11.15-.53-2.84.49-4.67,2.52-6.33-5.19,2.35-2.96,8.86-6.33,15.15Z"/>
                <path class="cls-5" d="M50.87,11.38c-3.16,1.43-3.66,4.36-4.23,7.76-.39,2.31-.83,4.93-2.2,7.5-.7,1.66-2,3.23-3.85,4.66-.07.05-.09.14-.07.22.02.08.1.14.18.14.06,0,.16,0,.28,0,.94,0,3.44-.23,5.05-2.51,1.98-2.81,3.2-8.09,2.61-11.31-.47-2.52.26-4.36,2.45-6.13.08-.06.1-.18.04-.26-.05-.09-.16-.12-.25-.08ZM48.24,17.92c.58,3.13-.61,8.27-2.54,11-1.35,1.92-3.38,2.28-4.41,2.34,1.67-1.38,2.85-2.88,3.52-4.45,1.4-2.61,1.84-5.26,2.24-7.61.44-2.59.8-4.78,2.26-6.26-1.11,1.44-1.43,3.01-1.06,4.98Z"/>
              </g>
            </g>
            <g>
              <g>
                <path class="cls-5" d="M33.75,50.57c-3.37,6.29-1.14,12.81-6.33,15.15,0,0,1.6-.07,3.61-1.83,2.01-1.76,1.92-4.58,3.6-7.82,1.43-2.77,2.59-2.82,2.59-2.82l.52-7.42s-.03,0-.07,0c-1.35,1.04-3.03,2.65-3.92,4.75Z"/>
                <path class="cls-5" d="M37.77,45.63s-.03,0-.09,0c-.04,0-.09.01-.13.04-1.91,1.47-3.24,3.09-3.98,4.82-1.39,2.61-1.84,5.26-2.23,7.6-.58,3.42-1.03,6.12-4,7.46-.09.04-.14.14-.11.23.02.09.1.16.2.16h0c.07,0,1.69-.1,3.73-1.88,1.24-1.09,1.7-2.55,2.24-4.25.35-1.1.74-2.34,1.41-3.63,1.34-2.59,2.41-2.71,2.42-2.71.1,0,.18-.09.19-.19l.52-7.42c0-.11-.07-.2-.18-.21ZM33.76,50.57h0,0ZM37.03,53.09c-.4.12-1.42.65-2.58,2.89-.68,1.32-1.08,2.58-1.43,3.69-.52,1.64-.96,3.05-2.12,4.07-.76.67-1.47,1.09-2.04,1.35,1.98-1.58,2.4-4.1,2.88-6.94.39-2.31.83-4.93,2.2-7.48,0,0,0-.01,0-.02.67-1.58,1.87-3.07,3.58-4.44l-.49,6.89Z"/>
              </g>
              <g>
                <path class="cls-4" d="M32.52,48.24c-1.94,2.75-3.16,7.97-2.57,11.15.53,2.84-.49,4.67-2.52,6.33,5.19-2.35,2.96-8.86,6.33-15.15.89-2.1,2.57-3.7,3.92-4.75-.49-.03-3.38-.09-5.15,2.42Z"/>
                <path class="cls-5" d="M32.35,48.12c-1.98,2.81-3.2,8.09-2.61,11.31.47,2.52-.27,4.36-2.45,6.13-.08.07-.1.18-.04.26.04.06.1.1.17.1.03,0,.06,0,.08-.02,3.16-1.43,3.66-4.36,4.23-7.76.39-2.31.83-4.93,2.2-7.5.7-1.66,2-3.23,3.85-4.66.07-.05.09-.14.07-.22-.02-.08-.1-.14-.18-.14-.57-.04-3.51-.08-5.33,2.5ZM33.57,50.47c-1.4,2.61-1.84,5.26-2.24,7.61-.44,2.6-.81,4.78-2.26,6.27,1.11-1.44,1.43-3.02,1.07-4.99-.58-3.12.61-8.27,2.54-11,1.36-1.92,3.38-2.29,4.41-2.34-1.67,1.38-2.86,2.88-3.52,4.45Z"/>
              </g>
            </g>
            <g>
              <g>
                <path class="cls-5" d="M28.36,11.17s-1.08,1.18-1.25,3.85c-.17,2.66,1.88,4.6,2.98,8.07.94,2.97.16,3.83.16,3.83l4.88,5.62s.02-.02.06-.05c.22-1.69.27-4.02-.59-6.13-2.07-6.83-8.25-9.86-6.24-15.19Z"/>
                <path class="cls-5" d="M31,19.34c-2.01-2.82-3.6-5.05-2.45-8.1.03-.09,0-.19-.08-.24-.08-.05-.19-.03-.25.04-.05.05-1.13,1.27-1.31,3.97-.11,1.65.6,3.01,1.42,4.59.53,1.02,1.13,2.18,1.57,3.56.88,2.78.21,3.63.21,3.63-.07.08-.07.19,0,.27l4.88,5.62s.1.07.15.07c.05,0,.09-.02.13-.05l.06-.05s.06-.08.06-.12c.31-2.39.11-4.48-.6-6.22-.86-2.83-2.42-5.02-3.79-6.95ZM35.03,32.11l-4.53-5.21c.2-.37.54-1.47-.22-3.87-.45-1.41-1.06-2.59-1.6-3.62-.79-1.52-1.48-2.84-1.38-4.38.07-1.01.27-1.81.49-2.4-.28,2.52,1.2,4.6,2.87,6.95,1.36,1.91,2.9,4.08,3.74,6.85,0,0,0,.01,0,.02.64,1.59.85,3.49.61,5.67Z"/>
              </g>
              <g>
                <path class="cls-4" d="M31.05,17.43c-2.38-1.63-2.96-3.65-2.69-6.26-2.01,5.33,4.17,8.36,6.24,15.19.86,2.11.8,4.43.59,6.13.37-.33,2.45-2.33,1.93-5.36-.57-3.31-3.4-7.87-6.07-9.7Z"/>
                <path class="cls-5" d="M31.17,17.26c-2.11-1.45-2.89-3.27-2.61-6.07.01-.1-.06-.19-.15-.22-.1-.03-.2.03-.23.12-1.22,3.25.5,5.67,2.5,8.48,1.36,1.91,2.9,4.08,3.74,6.86.68,1.67.87,3.7.57,6.02-.01.08.03.16.11.21.03.02.06.02.09.02.05,0,.1-.02.13-.05.43-.38,2.53-2.42,2-5.54-.58-3.39-3.46-7.98-6.15-9.84ZM35.45,31.94c.21-2.16-.02-4.05-.66-5.64-.86-2.83-2.42-5.03-3.8-6.96-1.53-2.14-2.81-3.95-2.83-6.02.24,1.8,1.12,3.14,2.77,4.28,2.62,1.8,5.42,6.27,5.98,9.57.4,2.32-.78,4.01-1.47,4.77Z"/>
              </g>
            </g>
            <g>
              <g>
                <path class="cls-5" d="M48.13,50.37l-4.88-5.62s-.02.02-.06.05c-.22,1.69-.27,4.02.59,6.13,2.07,6.83,8.25,9.86,6.24,15.19,0,0,1.08-1.18,1.25-3.85.17-2.66-1.88-4.6-2.98-8.07-.94-2.97-.16-3.83-.16-3.83Z"/>
                <path class="cls-5" d="M48.48,54.13c-.88-2.78-.21-3.63-.21-3.63.07-.08.07-.19,0-.27l-4.88-5.62c-.07-.09-.2-.09-.28-.02l-.06.05s-.06.08-.07.13c-.31,2.39-.11,4.48.6,6.22.86,2.83,2.42,5.02,3.79,6.95,2.01,2.82,3.6,5.05,2.45,8.1-.03.09,0,.19.08.24.03.02.07.03.11.03.06,0,.11-.02.15-.07.05-.05,1.13-1.27,1.31-3.97.11-1.65-.6-3.01-1.42-4.59-.53-1.02-1.13-2.18-1.57-3.56ZM50.58,64.65c.28-2.52-1.2-4.6-2.87-6.94-1.36-1.91-2.9-4.08-3.74-6.85,0,0,0-.01,0-.02-.64-1.59-.85-3.49-.61-5.67l4.53,5.21c-.2.37-.54,1.47.22,3.87.45,1.41,1.06,2.59,1.6,3.62.79,1.52,1.48,2.84,1.38,4.38-.07,1.01-.27,1.81-.49,2.4Z"/>
              </g>
              <g>
                <path class="cls-4" d="M43.19,44.79c-.37.33-2.45,2.33-1.93,5.36.57,3.32,3.4,7.87,6.07,9.7,2.38,1.63,2.96,3.65,2.69,6.26,2.01-5.33-4.17-8.36-6.24-15.19-.86-2.11-.8-4.43-.59-6.13Z"/>
                <path class="cls-5" d="M43.96,50.84c-.68-1.67-.87-3.7-.57-6.02.01-.08-.03-.16-.11-.2-.07-.04-.17-.03-.23.03-.43.38-2.53,2.43-2,5.54.58,3.39,3.46,7.99,6.15,9.84,2.11,1.45,2.89,3.27,2.6,6.07-.01.1.06.19.15.22.02,0,.03,0,.05,0,.08,0,.16-.05.19-.13,1.22-3.25-.5-5.67-2.5-8.48-1.36-1.91-2.9-4.08-3.74-6.86ZM47.44,59.69c-2.62-1.8-5.42-6.27-5.98-9.57-.4-2.31.78-4,1.47-4.77-.21,2.16.02,4.05.66,5.63.86,2.83,2.42,5.03,3.8,6.96,1.53,2.14,2.81,3.95,2.83,6.02-.24-1.8-1.12-3.14-2.77-4.28Z"/>
              </g>
            </g>
            <g>
              <g>
                <path class="cls-5" d="M27.26,33.2c-6.29-3.37-12.81-1.14-15.15-6.33,0,0,.07,1.6,1.83,3.61,1.76,2.01,4.58,1.92,7.82,3.6,2.77,1.43,2.82,2.59,2.82,2.59l7.42.52s0-.03,0-.07c-1.04-1.35-2.65-3.03-4.75-3.92Z"/>
                <path class="cls-5" d="M27.35,33.02c-2.61-1.39-5.26-1.84-7.6-2.23-3.42-.57-6.12-1.03-7.46-4-.04-.09-.14-.14-.23-.11-.09.02-.16.11-.15.21,0,.07.1,1.69,1.88,3.73,1.09,1.24,2.55,1.71,4.25,2.24,1.1.35,2.34.74,3.63,1.4,2.59,1.34,2.71,2.41,2.71,2.42,0,.1.09.18.19.19l7.42.52s0,0,.01,0c.1,0,.19-.08.2-.18v-.08s0-.1-.04-.14c-1.47-1.91-3.09-3.25-4.82-3.98ZM24.74,36.48c-.12-.4-.65-1.42-2.89-2.58-1.32-.68-2.58-1.08-3.69-1.43-1.64-.52-3.05-.96-4.07-2.12-.67-.76-1.09-1.47-1.35-2.04,1.58,1.98,4.1,2.4,6.94,2.88,2.31.39,4.93.83,7.48,2.2,0,0,.01,0,.02,0,1.58.67,3.07,1.87,4.45,3.58l-6.89-.49Z"/>
              </g>
              <g>
                <path class="cls-4" d="M29.59,31.97c-2.75-1.94-7.97-3.16-11.15-2.57-2.84.53-4.67-.49-6.33-2.52,2.35,5.19,8.86,2.96,15.15,6.33,2.1.89,3.7,2.57,4.75,3.92.03-.49.09-3.38-2.42-5.15Z"/>
                <path class="cls-5" d="M29.7,31.8c-2.81-1.98-8.09-3.21-11.31-2.61-2.52.47-4.36-.26-6.13-2.45-.06-.08-.18-.1-.26-.04-.09.05-.12.16-.08.25,1.43,3.16,4.36,3.66,7.76,4.23,2.31.39,4.93.83,7.5,2.2,1.66.71,3.23,2,4.67,3.86.04.05.1.08.16.08.02,0,.04,0,.06,0,.08-.02.14-.1.14-.18.03-.57.07-3.51-2.51-5.33ZM27.36,33.02c-2.61-1.4-5.26-1.84-7.61-2.24-2.6-.44-4.78-.8-6.27-2.26,1.44,1.11,3.02,1.43,4.99,1.06h0c3.12-.58,8.27.61,11,2.54,1.92,1.36,2.28,3.38,2.34,4.41-1.38-1.67-2.88-2.86-4.45-3.52Z"/>
              </g>
            </g>
            <g>
              <g>
                <path class="cls-5" d="M56.62,43.2c-2.77-1.43-2.82-2.59-2.82-2.59l-7.42-.52s0,.03,0,.07c1.04,1.35,2.65,3.03,4.75,3.92,6.29,3.37,12.81,1.14,15.15,6.33,0,0-.07-1.6-1.83-3.61-1.76-2.01-4.58-1.92-7.82-3.6Z"/>
                <path class="cls-5" d="M60.34,44.43c-1.1-.35-2.34-.74-3.63-1.4-2.59-1.34-2.71-2.42-2.71-2.42,0-.1-.09-.18-.19-.19l-7.42-.52c-.11-.02-.2.07-.21.18v.08s0,.1.04.14c1.47,1.91,3.1,3.25,4.82,3.98,2.61,1.39,5.26,1.84,7.6,2.23,3.42.58,6.12,1.03,7.46,4,.03.07.11.12.18.12.02,0,.03,0,.05,0,.09-.02.16-.11.15-.21,0-.07-.1-1.69-1.88-3.73-1.09-1.24-2.55-1.71-4.25-2.24ZM58.69,46.1c-2.31-.39-4.93-.83-7.48-2.2,0,0-.01,0-.02,0-1.58-.67-3.07-1.87-4.45-3.58l6.89.49c.12.4.65,1.42,2.89,2.58,1.32.68,2.58,1.08,3.69,1.43,1.64.52,3.05.96,4.07,2.12.67.76,1.09,1.47,1.35,2.04-1.58-1.98-4.1-2.4-6.94-2.88Z"/>
              </g>
              <g>
                <path class="cls-4" d="M51.12,44.08c-2.1-.89-3.7-2.57-4.75-3.92-.03.49-.09,3.38,2.42,5.15,2.75,1.94,7.97,3.16,11.15,2.57,2.84-.53,4.67.49,6.33,2.52-2.35-5.19-8.86-2.96-15.15-6.33Z"/>
                <path class="cls-5" d="M58.69,46.1c-2.31-.39-4.93-.83-7.5-2.2-1.66-.7-3.23-2-4.67-3.85-.05-.07-.14-.09-.22-.07-.08.02-.14.1-.14.18-.03.57-.07,3.51,2.51,5.33,2.81,1.98,8.09,3.2,11.31,2.61h0c2.52-.46,4.36.26,6.13,2.45.04.05.1.07.16.07.04,0,.07-.01.11-.03.09-.05.12-.16.08-.25-1.43-3.16-4.36-3.66-7.76-4.23ZM59.94,47.89h0,0ZM61.38,47.54c-.47,0-.95.05-1.47.14h0c-3.13.58-8.27-.61-11-2.54-1.92-1.36-2.28-3.38-2.34-4.41,1.38,1.67,2.88,2.86,4.45,3.52,2.61,1.4,5.26,1.84,7.61,2.24,2.6.44,4.78.8,6.27,2.26-1.06-.82-2.2-1.21-3.52-1.21Z"/>
              </g>
            </g>
            <g>
              <g>
                <path class="cls-5" d="M26.91,43.23c-6.83,2.07-9.86,8.25-15.19,6.24,0,0,1.18,1.08,3.85,1.25,2.66.17,4.6-1.88,8.07-2.98,2.97-.94,3.83-.16,3.83-.16l5.62-4.88s-.02-.02-.05-.06c-1.69-.22-4.02-.27-6.13.59Z"/>
                <path class="cls-5" d="M33.19,42.51s-.08-.06-.12-.07c-2.39-.31-4.48-.11-6.22.6-2.83.86-5.02,2.42-6.95,3.79-2.82,2.01-5.05,3.6-8.1,2.45-.09-.04-.19,0-.24.08-.05.08-.04.19.04.25.05.05,1.27,1.13,3.97,1.31.11,0,.22.01.33.01,1.5,0,2.79-.67,4.26-1.43,1.02-.53,2.18-1.13,3.56-1.57,2.78-.89,3.63-.21,3.63-.21.07.07.19.07.27,0l5.62-4.88c.08-.07.09-.2.02-.28l-.05-.06ZM26.92,43.23h0,0ZM27.44,47.32c-.37-.2-1.46-.54-3.87.22-1.41.45-2.59,1.06-3.62,1.6-1.52.79-2.84,1.47-4.38,1.38-1.01-.07-1.81-.27-2.4-.49,2.52.29,4.6-1.2,6.95-2.87,1.91-1.36,4.08-2.9,6.84-3.74,0,0,.01,0,.02,0,1.59-.64,3.49-.85,5.67-.61l-5.21,4.52Z"/>
              </g>
              <g>
                <path class="cls-4" d="M27.68,40.71c-3.31.57-7.87,3.4-9.7,6.07-1.63,2.38-3.65,2.96-6.26,2.69,5.33,2.01,8.36-4.17,15.19-6.24,2.11-.86,4.43-.8,6.13-.59-.33-.37-2.33-2.45-5.36-1.93Z"/>
                <path class="cls-5" d="M27.65,40.51c-3.39.58-7.98,3.46-9.84,6.15-1.45,2.12-3.27,2.89-6.07,2.6-.11,0-.19.06-.22.15-.02.1.03.2.13.23.75.28,1.46.41,2.14.41,2.25,0,4.18-1.37,6.33-2.91,1.91-1.36,4.08-2.9,6.86-3.74,1.67-.68,3.7-.87,6.02-.57.08,0,.16-.03.2-.11.04-.07.03-.17-.03-.23-.38-.43-2.43-2.53-5.54-2ZM26.85,43.04c-2.83.86-5.03,2.42-6.96,3.8-2.14,1.52-3.94,2.81-6.02,2.83,1.8-.24,3.14-1.12,4.27-2.77,1.8-2.62,6.27-5.42,9.57-5.98,2.32-.4,4.01.78,4.77,1.47-2.16-.21-4.05.01-5.64.66Z"/>
              </g>
            </g>
            <g>
              <g>
                <path class="cls-5" d="M54.74,29.54c-2.97.94-3.83.16-3.83.16l-5.62,4.88s.02.02.05.06c1.69.22,4.02.27,6.13-.59,6.83-2.07,9.86-8.25,15.19-6.24,0,0-1.18-1.08-3.85-1.25-2.66-.17-4.6,1.88-8.07,2.98Z"/>
                <path class="cls-5" d="M62.83,26.36c-1.65-.12-3.01.6-4.59,1.42-1.02.53-2.18,1.13-3.56,1.57-2.78.89-3.63.21-3.63.21-.07-.07-.19-.07-.27,0l-5.62,4.88c-.08.07-.09.2-.02.28l.05.06s.08.06.13.07c.72.09,1.42.14,2.09.14,1.54,0,2.92-.25,4.13-.74,2.83-.86,5.02-2.42,6.95-3.79,2.82-2.01,5.05-3.6,8.1-2.45.09.04.19,0,.24-.08.05-.08.04-.19-.04-.25-.05-.05-1.27-1.13-3.97-1.31ZM58.25,30.12c-1.91,1.36-4.08,2.9-6.84,3.74,0,0-.01,0-.02,0-1.59.64-3.5.85-5.67.62l5.21-4.53c.37.19,1.46.54,3.87-.22,1.41-.45,2.58-1.06,3.62-1.6,1.52-.79,2.85-1.47,4.38-1.38,1.01.07,1.81.27,2.4.49-2.52-.28-4.6,1.2-6.95,2.87Z"/>
              </g>
              <g>
                <path class="cls-4" d="M51.47,34.05c-2.11.86-4.43.8-6.13.59.33.37,2.33,2.45,5.36,1.93,3.31-.57,7.87-3.4,9.7-6.07,1.63-2.38,3.65-2.96,6.26-2.69-5.33-2.01-8.36,4.17-15.19,6.24Z"/>
                <path class="cls-5" d="M66.73,27.62c-3.25-1.23-5.67.5-8.48,2.5-1.91,1.36-4.08,2.9-6.86,3.74-1.67.68-3.7.88-6.02.57-.08,0-.16.03-.2.11-.04.07-.03.17.03.23.34.38,1.99,2.08,4.54,2.08.32,0,.65-.03,1-.09,3.39-.58,7.98-3.46,9.84-6.15,1.45-2.11,3.27-2.89,6.07-2.6.1,0,.19-.06.22-.15.02-.1-.03-.2-.13-.23ZM60.4,30.5h0,0ZM60.24,30.39c-1.8,2.62-6.27,5.42-9.57,5.98-2.31.4-4.01-.78-4.77-1.47,2.16.21,4.05-.02,5.64-.66,2.83-.86,5.03-2.42,6.96-3.8,2.15-1.53,3.95-2.81,6.03-2.83-1.81.23-3.14,1.12-4.28,2.77Z"/>
              </g>
            </g>
          </g>
          <g>
            <g>
              <g>
                <polygon class="cls-4" points="39.17 31.76 43.12 31.76 39.17 8.32 39.17 31.76"/>
                <path class="cls-5" d="M39.16,8.12c-.1,0-.18.1-.18.2v23.44c0,.11.09.2.2.2h3.94c.06,0,.12-.03.15-.07.04-.05.05-.11.04-.16l-3.94-23.44c-.02-.1-.12-.2-.22-.17ZM39.37,10.73l3.5,20.83h-3.5V10.73Z"/>
              </g>
              <g>
                <polygon class="cls-5" points="39.17 31.76 39.17 8.32 35.23 31.76 39.17 31.76"/>
                <path class="cls-5" d="M39.19,8.12c-.1-.03-.2.06-.22.17l-3.94,23.44c0,.06,0,.12.04.16.04.04.09.07.15.07h3.94c.11,0,.2-.09.2-.2V8.32c0-.1-.08-.19-.18-.2ZM38.97,31.55h-3.5l3.5-20.83v20.83Z"/>
              </g>
            </g>
            <g>
              <g>
                <polygon class="cls-4" points="39.17 68.47 43.12 45.03 39.17 45.03 39.17 68.47"/>
                <path class="cls-5" d="M43.12,44.83h-3.94c-.11,0-.2.09-.2.2v23.44c0,.1.08.19.18.2,0,0,.01,0,.02,0,.1,0,.18-.07.2-.17l3.94-23.44c.01-.06,0-.12-.04-.16-.04-.05-.09-.07-.15-.07ZM39.37,66.06v-20.83h3.5l-3.5,20.83Z"/>
              </g>
              <g>
                <polygon class="cls-5" points="39.17 68.47 39.17 45.03 35.23 45.03 39.17 68.47"/>
                <path class="cls-5" d="M39.17,44.83h-3.94c-.06,0-.12.03-.15.07-.04.04-.05.11-.04.16l3.94,23.44c.02.1.1.17.2.17,0,0,.01,0,.02,0,.1,0,.18-.1.18-.2v-23.44c0-.11-.09-.2-.2-.2ZM38.97,66.06l-3.5-20.83h3.5v20.83Z"/>
              </g>
            </g>
            <g>
              <g>
                <polygon class="cls-4" points="34.48 33.7 37.27 30.91 17.9 17.13 34.48 33.7"/>
                <path class="cls-5" d="M18.02,16.96c-.09-.06-.2-.05-.27.03-.07.08-.06.2.01.27l16.57,16.57s.09.06.14.06.1-.02.14-.06l2.79-2.79s.06-.1.06-.16c0-.06-.04-.11-.08-.15l-19.36-13.79ZM34.48,33.42l-14.73-14.73,17.21,12.25-2.48,2.48Z"/>
              </g>
              <g>
                <polygon class="cls-5" points="31.69 36.49 34.48 33.7 17.9 17.13 31.69 36.49"/>
                <path class="cls-5" d="M18.05,16.98c-.07-.07-.19-.08-.27-.01-.08.07-.09.18-.03.27l13.78,19.36s.09.08.15.08c0,0,.01,0,.02,0,.05,0,.1-.02.14-.06l2.79-2.79s.06-.09.06-.14-.02-.1-.06-.14l-16.57-16.57ZM31.72,36.18l-12.25-17.2,14.73,14.73-2.48,2.48Z"/>
              </g>
            </g>
            <g>
              <g>
                <polygon class="cls-4" points="43.87 43.09 60.44 59.66 46.65 40.3 43.87 43.09"/>
                <path class="cls-5" d="M46.82,40.18s-.09-.08-.15-.08c-.06-.02-.12.02-.16.06l-2.79,2.79c-.08.08-.08.21,0,.29l16.57,16.57s.09.06.14.06c.05,0,.09-.02.13-.05.08-.07.09-.18.03-.27l-13.78-19.36ZM44.15,43.09l2.48-2.48,12.25,17.21-14.73-14.73Z"/>
              </g>
              <g>
                <polygon class="cls-5" points="41.08 45.88 60.44 59.66 43.87 43.09 41.08 45.88"/>
                <path class="cls-5" d="M44.01,42.94c-.08-.08-.21-.08-.29,0l-2.79,2.79s-.06.1-.06.16c0,.06.04.11.08.15l19.36,13.79s.08.04.12.04c.06,0,.11-.02.15-.07.07-.08.06-.2-.01-.27l-16.57-16.57ZM41.39,45.85l2.48-2.48,14.73,14.73-17.2-12.25Z"/>
              </g>
            </g>
            <g>
              <g>
                <polygon class="cls-4" points="32.53 38.39 32.53 34.45 9.1 38.39 32.53 38.39"/>
                <path class="cls-5" d="M32.5,34.25l-23.44,3.94c-.1.02-.18.11-.17.22,0,.1.1.18.2.18h23.44c.11,0,.2-.09.2-.2v-3.94c0-.06-.03-.11-.07-.15-.05-.04-.11-.06-.16-.05ZM32.33,38.19H11.51l20.83-3.5v3.5Z"/>
              </g>
              <g>
                <polygon class="cls-5" points="32.53 42.34 32.53 38.39 9.1 38.39 32.53 42.34"/>
                <path class="cls-5" d="M32.53,38.19H9.1c-.1,0-.19.08-.2.18,0,.1.06.2.17.22l23.44,3.94s.02,0,.03,0c.05,0,.09-.02.13-.05.05-.04.07-.09.07-.15v-3.94c0-.11-.09-.2-.2-.2ZM32.33,42.1l-20.83-3.5h20.83v3.5Z"/>
              </g>
            </g>
            <g>
              <g>
                <polygon class="cls-4" points="45.81 38.39 69.25 38.39 45.81 34.45 45.81 38.39"/>
                <path class="cls-5" d="M69.28,38.19l-23.44-3.94c-.06,0-.12,0-.16.05-.04.04-.07.09-.07.15v3.94c0,.11.09.2.2.2h23.44c.1,0,.19-.08.2-.18,0-.1-.06-.2-.17-.22ZM46.01,38.19v-3.5l20.83,3.5h-20.83Z"/>
              </g>
              <g>
                <polygon class="cls-5" points="45.81 42.34 69.25 38.39 45.81 38.39 45.81 42.34"/>
                <path class="cls-5" d="M69.25,38.19h-23.44c-.11,0-.2.09-.2.2v3.94c0,.06.03.12.07.15.04.03.08.05.13.05.01,0,.02,0,.03,0l23.44-3.94c.1-.02.18-.11.17-.22,0-.1-.1-.18-.2-.18ZM46.01,42.1v-3.5h20.83l-20.83,3.5Z"/>
              </g>
            </g>
            <g>
              <g>
                <polygon class="cls-4" points="17.9 59.66 34.48 43.09 31.69 40.3 17.9 59.66"/>
                <path class="cls-5" d="M31.83,40.15s-.1-.08-.16-.06c-.06,0-.11.04-.15.08l-13.78,19.36c-.06.09-.05.2.03.27.04.03.08.05.13.05.05,0,.1-.02.14-.06l16.57-16.57c.08-.08.08-.21,0-.29l-2.79-2.79ZM19.47,57.81l12.25-17.21,2.48,2.48-14.73,14.73Z"/>
              </g>
              <g>
                <polygon class="cls-5" points="17.9 59.66 37.27 45.88 34.48 43.09 17.9 59.66"/>
                <path class="cls-5" d="M34.62,42.94c-.08-.08-.21-.08-.29,0l-16.57,16.57c-.07.07-.08.19-.01.27.04.05.1.07.15.07.04,0,.08-.01.12-.04l19.36-13.79s.08-.09.08-.15c0-.06-.02-.12-.06-.16l-2.79-2.79ZM19.75,58.1l14.73-14.73,2.48,2.48-17.21,12.25Z"/>
              </g>
            </g>
            <g>
              <g>
                <polygon class="cls-4" points="43.87 33.7 60.44 17.13 41.08 30.91 43.87 33.7"/>
                <path class="cls-5" d="M60.32,16.96l-19.36,13.79s-.08.09-.08.15c0,.06.02.12.06.16l2.79,2.79s.09.06.14.06.1-.02.14-.06l16.57-16.57c.07-.07.08-.19.01-.27-.07-.08-.19-.09-.27-.03ZM43.87,33.42l-2.48-2.48,17.2-12.25-14.73,14.73Z"/>
              </g>
              <g>
                <polygon class="cls-5" points="46.65 36.49 60.44 17.13 43.87 33.7 46.65 36.49"/>
                <path class="cls-5" d="M60.3,16.98l-16.57,16.57s-.06.09-.06.14.02.1.06.14l2.79,2.79s.09.06.14.06c0,0,.01,0,.02,0,.06,0,.11-.04.15-.08l13.78-19.36c.06-.09.05-.2-.03-.27-.08-.07-.2-.06-.27.01ZM46.63,36.18l-2.48-2.48,14.73-14.73-12.25,17.2Z"/>
              </g>
            </g>
          </g>
          <g>
            <g>
              <circle class="cls-4" cx="39.27" cy="38.56" r="9.46"/>
              <path class="cls-5" d="M39.27,28.9c-5.33,0-9.66,4.33-9.66,9.66s4.33,9.66,9.66,9.66,9.66-4.33,9.66-9.66-4.33-9.66-9.66-9.66ZM39.27,47.82c-5.11,0-9.26-4.15-9.26-9.26s4.15-9.26,9.26-9.26,9.26,4.15,9.26,9.26-4.15,9.26-9.26,9.26Z"/>
            </g>
            <g>
              <g>
                <path class="cls-5" d="M40.14,35.13c.89-.42,1.88-.99,2.79-1.16.76.02,1.98.38,2.87.68-.74-.83-1.79-1.29-2.92-1.36-1.17.28-2.06.93-2.74,1.85Z"/>
                <path class="cls-5" d="M42.96,35.07c-1-.2-1.94.1-2.28,1.15.57-.81,1.29-1.01,2.24-.82.89.01,1.76.2,2.44.82-.5-.81-1.5-1.12-2.4-1.15Z"/>
                <path class="cls-5" d="M40.93,36.37c.65,1.38,3.78,1.3,3.54-.54-.26,1.59-2.58,1.34-3.54.54Z"/>
                <path class="cls-5" d="M42.13,35.17c-.16,0-.31.02-.45.08-.04.12.07.7.19.95.17.35.57.78,1.17.75.47-.02.67-.7.67-1.31,0-.12-.02-.23-.05-.34-.57-.12-1.13-.12-1.54-.13Z"/>
              </g>
              <g>
                <path class="cls-5" d="M35.16,33.28c-1.13.07-2.18.53-2.92,1.36.9-.3,2.11-.66,2.87-.68.91.18,1.9.74,2.79,1.16-.68-.92-1.57-1.57-2.74-1.85Z"/>
                <path class="cls-5" d="M35.08,35.07c-.9.03-1.9.34-2.4,1.15.67-.62,1.55-.81,2.44-.82.95-.19,1.67,0,2.24.82-.34-1.05-1.28-1.36-2.28-1.15Z"/>
                <path class="cls-5" d="M33.57,35.82c-.24,1.84,2.89,1.93,3.54.54-.96.79-3.28,1.05-3.54-.54Z"/>
                <path class="cls-5" d="M35.91,35.17c-.4,0-.96.01-1.54.13-.03.1-.05.22-.05.34,0,.62.21,1.29.67,1.31.6.03,1-.4,1.17-.75.12-.25.23-.83.19-.95-.14-.05-.28-.08-.45-.08Z"/>
              </g>
              <g>
                <g>
                  <path class="cls-5" d="M40.07,40.53s.07-.07.1-.12l-.19.1s.06.01.09.02Z"/>
                  <path class="cls-5" d="M40.07,40.21c-.08-.01-.16.03-.19.1-.11.21-.47.27-.74.26-.21,0-.18.32.02.28.29,0,.66-.03.91-.33-.03-.01-.06,0-.09-.02l.19-.1c-.03.05-.07.08-.1.12.98.32,1.3-.68.59-1.31.41.63.29,1.26-.59.99Z"/>
                  <path class="cls-5" d="M39.9,40.6c1.02.02,1.87.24,2.76.74-.63-.75-1.84-1.38-2.76-.74Z"/>
                </g>
                <g>
                  <path class="cls-5" d="M38.24,40.53s.06,0,.09-.02l-.19-.1c.03.05.07.08.1.12Z"/>
                  <path class="cls-5" d="M39.18,40.58c-.28,0-.64-.06-.74-.26-.03-.07-.11-.12-.19-.1-.88.27-1-.36-.59-.99-.71.62-.39,1.63.59,1.31-.03-.04-.07-.07-.1-.12l.19.1s-.06.01-.09.02c.25.3.62.33.91.33.2.03.23-.29.02-.28Z"/>
                  <path class="cls-5" d="M35.65,41.33c.88-.5,1.73-.72,2.76-.74-.91-.64-2.12,0-2.76.74Z"/>
                </g>
              </g>
              <path class="cls-5" d="M38.16,45.29c.66.17,1.32.17,1.98,0-.66-.17-1.32-.17-1.98,0Z"/>
              <g>
                <path class="cls-5" d="M34.95,42.07c-.39.34-.63.82-.83,1.29.38-.39.58-.81.83-1.29Z"/>
                <path class="cls-5" d="M39.15,42.25s-.36.03-.88-.16c-.34-.05-2.61.7-2.95.7,1.2,1.09,2.35,1.64,3.82,1.64s2.62-.55,3.82-1.64c-.34,0-2.61-.75-2.95-.7-.52.19-.88.16-.88.16ZM39.15,43.65c-2.07-.03-2.76-.67-2.76-.67h5.53s-.69.64-2.76.67Z"/>
                <path class="cls-5" d="M43.35,42.07c.34.38.57.85.83,1.29-.07-.52-.34-1.05-.83-1.29Z"/>
              </g>
            </g>
          </g>
        </g>
      </g>
    </g>
  </g>
</svg>