<?xml version="1.0" encoding="UTF-8"?>
<svg id="Layer_2" data-name="Layer 2" xmlns="http://www.w3.org/2000/svg" viewBox="0 0 481.89 85.41">
  <defs>
    <style>
      .cls-1 {
        fill: #fff;
      }
    </style>
  </defs>
  <g id="Layer_1-2" data-name="Layer 1">
    <g>
      <g>
        <polygon class="cls-1" points="59.96 85.41 33.86 59.31 8.81 84.36 6.72 82.28 33.86 55.14 59.96 81.24 86.06 55.14 113.2 82.28 111.11 84.36 86.06 59.31 59.96 85.41"/>
        <rect class="cls-1" x="87.38" y="35.98" width="36.91" height="2.95" transform="translate(4.52 85.8) rotate(-45)"/>
        <rect class="cls-1" x="58.49" width="2.95" height="36.91"/>
        <rect class="cls-1" x="12.62" y="19" width="2.95" height="36.91" transform="translate(-22.35 20.93) rotate(-45)"/>
      </g>
      <g>
        <path class="cls-1" d="M159.92,32.9h4.74l15.09,22.61,15.09-22.61h4.74v41.43h-4.68v-33.56l-15.09,22.19h-.24l-15.09-22.13v33.5h-4.56v-41.43h0Z"/>
        <path class="cls-1" d="M226.63,32.6h4.38l18.88,41.73h-5.03l-4.85-10.95h-22.55l-4.91,10.95h-4.79l18.88-41.73h-.01ZM238.17,59.12l-9.41-21.07-9.47,21.07h18.88Z"/>
        <path class="cls-1" d="M253.79,53.73v-.12c0-11.72,8.76-21.42,20.95-21.42,7.52,0,12.01,2.66,16.16,6.57l-3.2,3.43c-3.49-3.31-7.4-5.68-13.02-5.68-9.17,0-16.04,7.46-16.04,16.99v.12c0,9.59,6.93,17.11,16.04,17.11,5.68,0,9.41-2.19,13.38-5.98l3.08,3.02c-4.32,4.38-9.05,7.28-16.57,7.28-11.96,0-20.78-9.41-20.78-21.31h0Z"/>
        <path class="cls-1" d="M296.29,53.73v-.12c0-11.42,8.58-21.42,21.19-21.42s21.07,9.88,21.07,21.31v.12c0,11.43-8.58,21.43-21.19,21.43s-21.07-9.88-21.07-21.31h0ZM333.69,53.73v-.12c0-9.41-6.87-17.1-16.34-17.1s-16.22,7.58-16.22,16.99v.12c0,9.41,6.87,17.11,16.34,17.11s16.22-7.58,16.22-16.99h0Z"/>
        <path class="cls-1" d="M348.43,32.9h4.38l26.1,33.2v-33.2h4.56v41.43h-3.73l-26.75-33.97v33.97h-4.56s0-41.43,0-41.43Z"/>
        <path class="cls-1" d="M395.18,32.9h14.38c13.02,0,22.02,8.93,22.02,20.6v.12c0,11.66-8.99,20.72-22.02,20.72h-14.38v-41.43h0ZM399.86,37.22v32.79h9.71c10.48,0,17.16-7.1,17.16-16.28v-.12c0-9.17-6.69-16.39-17.16-16.39h-9.71Z"/>
        <path class="cls-1" d="M439.63,53.73v-.12c0-11.42,8.58-21.42,21.19-21.42s21.07,9.88,21.07,21.31v.12c0,11.43-8.58,21.43-21.19,21.43s-21.07-9.88-21.07-21.31h0ZM477.04,53.73v-.12c0-9.41-6.87-17.1-16.34-17.1s-16.22,7.58-16.22,16.99v.12c0,9.41,6.87,17.11,16.34,17.11s16.22-7.58,16.22-16.99h0Z"/>
      </g>
    </g>
  </g>
</svg>