<?xml version="1.0" encoding="UTF-8"?>
<svg id="Layer_2" data-name="Layer 2" xmlns="http://www.w3.org/2000/svg" viewBox="0 0 130 29.48">
  <defs>
    <style>
      .cls-1 {
        fill: #fff;
      }
    </style>
  </defs>
  <g id="Capa_1" data-name="Capa 1">
    <g>
      <path class="cls-1" d="M12.5,23.43c-.66-3.17-.8-6.36-.46-9.57.04-.38-.03-.52-.42-.55-.44-.03-.88-.09-1.31-.21-.46-.13-.6,0-.64.47-.27,2.95-.23,5.89.24,8.82.31,1.95.79,3.86,1.51,5.71.09.22.17.45.32.58.42.43,1,.52,1.45.25.53-.31.74-.87.5-1.48-.5-1.31-.91-2.65-1.19-4.02Z"/>
      <path class="cls-1" d="M7.4,12.43c-.49-.1-.96-.25-1.43-.41-.26-.09-.38-.07-.46.23-1.28,4.85-1.46,9.71-.28,14.61.06.25.15.49.34.65.4.39.92.46,1.39.21.49-.26.72-.73.58-1.31-.3-1.26-.52-2.53-.63-3.82-.27-3.23,0-6.41.85-9.53.11-.41.02-.54-.36-.62Z"/>
      <path class="cls-1" d="M.06,21.15c.04.77.54,1.24,1.23,1.22.72-.02,1.17-.53,1.13-1.35-.14-2.82,0-5.61.7-8.36.68-2.7,1.79-5.17,3.67-7.28,3.36-3.76,8.3-4.09,11.95-.59,2.79,2.69,4.06,6.09,4.08,9.96,0,.46-.07.92-.23,1.36-.08.23-.11.56-.43.57-.27,0-.37-.27-.48-.47-.23-.42-.38-.88-.54-1.33-.35-1.01-.6-2.05-1.06-3.02-.17-.37-.36-.72-.6-1.06-1.31-1.84-3.81-1.7-4.92.29-.7,1.26-.79,2.65-.71,4.04,0,.16.03.32.04.48.04,1.84.45,3.79,1.15,5.61.59,1.55,1.38,3.01,2.34,4.19.13.16.26.3.39.45,3.75,4.21,9.41,4.84,14.11,1.46,2.67-1.92,4.41-4.57,5.66-7.57,1.34-3.21,1.92-6.58,2.09-10.03.04-.77-.41-1.29-1.1-1.33-.72-.05-1.22.41-1.26,1.23-.15,2.82-.57,5.58-1.54,8.24-.95,2.62-2.3,4.96-4.39,6.87-3.73,3.41-8.67,3.23-11.94-.62-.67-.78-1.21-1.61-1.66-2.47-.79-1.86-1.24-3.83-1.45-5.86-.04-.41-.08-.82-.1-1.23-.05-.81,0-1.63.33-2.39.1-.24.22-.49.53-.5.3-.02.45.2.58.44.48.84.71,1.78,1.01,2.69.36,1.09.67,2.19,1.4,3.11,1.26,1.6,3.45,1.43,4.46-.34.66-1.15.73-2.43.69-3.71-.12-3.47-1.76-7.4-4.1-10.03-.15-.17-.3-.35-.46-.51C16.44-.93,10.48-1.11,5.99,2.86,3.52,5.04,2.06,7.86,1.12,10.96.12,14.29-.13,17.7.06,21.15"/>
      <path class="cls-1" d="M27.46,6.19c.33,3.22.16,6.41-.51,9.57-.08.38-.02.52.36.59.43.07.87.18,1.28.34.44.17.59.06.68-.4.57-2.91.82-5.84.65-8.8-.11-1.97-.4-3.92-.93-5.83-.06-.23-.12-.46-.26-.61-.38-.47-.94-.62-1.42-.4-.55.25-.82.79-.65,1.42.36,1.36.63,2.73.78,4.12Z"/>
      <path class="cls-1" d="M31.44,17.65c.47.15.93.35,1.38.56.25.12.37.11.48-.18,1.77-4.69,2.43-9.52,1.75-14.51-.04-.26-.1-.51-.28-.68-.36-.43-.87-.55-1.36-.34-.51.21-.79.66-.71,1.24.17,1.28.27,2.57.24,3.86-.06,3.24-.64,6.38-1.81,9.4-.15.4-.08.53.3.65Z"/>
      <g>
        <path class="cls-1" d="M51.35,18.69h.74c.3,0,.74-.44.74-.73v-6.58c0-.26-.45-.73-.74-.73h-.83v-3.85h6.8c.59,0,1.01.44,1.16,2.12.98-1.32,2.05-2.29,4.04-2.29.27,0,.51.03.95.18v4.76h-.65c-2.02,0-3.39.23-4.25.47v6.67h1.63v3.61h-9.59v-3.61Z"/>
        <path class="cls-1" d="M64.01,17.69c0-3.44,2.41-4.93,6.09-4.93,1.16,0,1.99.06,2.85.21v-.96c0-1.11-.59-1.61-2.11-1.61-1.6,0-2.44.57-3.06,1.08h-2.7v-4.45c1.66-.6,4.13-1.11,7.34-1.11,4.93,0,7.04,1.64,7.04,5.35v6.57c0,.3.42.75.71.75h.5v3.58c-2.04.18-2.17.18-3.72.18-2.02,0-3.05-.76-3.56-1.96-1.13,1.29-2.61,1.82-4.51,1.82-2.61,0-4.87-1.46-4.87-4.51ZM72.95,18.02v-2.36c-.39-.06-.86-.12-1.25-.12-1.04,0-1.6.39-1.6,1.55s.62,1.44,1.43,1.44c.56,0,.98-.18,1.43-.51Z"/>
        <path class="cls-1" d="M92.12,18.67l-1.49-2.29-1.19.85v1.35h1.31v3.61h-9.27v-3.61h.74c.3,0,.74-.44.74-.73V6.12c0-.29-.45-.73-.74-.73h-.8V1.62h7.1c.56,0,.92.5.92,1.29v10.34l2.11-1.73c.74-.62.56-1.15-.15-1.15h-.56v-3.7h9.03v3.85h-.56c-.3,0-.68.18-.95.41l-2.55,2.17,2.88,4.7c.24.38.56.76.89.76h.36v3.61h-7.81v-3.53Z"/>
        <path class="cls-1" d="M111.85,12.55c0-1.15-.53-1.38-1.9-1.38-.27,0-.74.03-1.19.09v7.32h1.72v3.61h-9.68v-3.61h.74c.3,0,.71-.47.71-.73V6.09c0-.29-.42-.7-.71-.7h-.83V1.62h7.1c.59,0,.95.5.95,1.29v5.82c1.34-1.35,3.15-2.35,5.55-2.35,2.08,0,4.04.85,4.04,3.7v7.76c0,.29.42.73.71.73h.48v3.61h-7.69v-9.64Z"/>
        <path class="cls-1" d="M120.4,18.58h.77c.3,0,.71-.44.71-.73v-6.58c0-.26-.42-.73-.71-.73h-.86v-3.85h7.16c.59,0,.92.53.92,1.5v9.67c0,.29.45.73.74.73h.77v3.61h-9.5v-3.61Z"/>
        <ellipse class="cls-1" cx="124.67" cy="3.13" rx="3.13" ry="3.1"/>
      </g>
      <g>
        <path class="cls-1" d="M51.39,28.55v-.79c0-.52.4-.85.91-.85.46,0,.86.26.86.73v.1h-.31v-.07c0-.31-.26-.48-.56-.48s-.58.19-.58.55v.77c0,.33.26.54.6.54.3,0,.54-.17.54-.48v-.04h.31v.08c0,.47-.39.73-.85.73-.51,0-.92-.28-.92-.8Z"/>
        <path class="cls-1" d="M54.18,28.55v-.79c0-.54.43-.86.91-.86.51,0,.92.31.92.83v.76c0,.54-.43.86-.91.86s-.92-.28-.92-.8ZM55.69,28.51v-.79c0-.33-.26-.53-.61-.53-.3,0-.58.19-.58.56v.77c0,.33.26.54.6.54.3,0,.59-.18.59-.55Z"/>
        <path class="cls-1" d="M57.12,26.95h.4l.7,1.46h0l.68-1.46h.4v2.36h-.31v-1.79h0l-.64,1.33h-.26l-.64-1.33h0v1.78h-.31v-2.36Z"/>
        <path class="cls-1" d="M60.43,28.52v-1.58h.32v1.53c0,.38.22.58.57.58s.57-.2.56-.57v-1.53h.32v1.55c0,.53-.36.85-.89.85-.49,0-.89-.26-.89-.82Z"/>
        <path class="cls-1" d="M63.36,26.94h.32l1.15,1.8h0v-1.8h.31v2.36h-.32l-1.16-1.82h0v1.82h-.31v-2.36Z"/>
        <path class="cls-1" d="M66.31,26.95h.32v2.36h-.32v-2.36Z"/>
        <path class="cls-1" d="M67.73,28.55v-.79c0-.52.4-.85.91-.85.46,0,.86.26.86.73v.1h-.31v-.07c0-.31-.26-.48-.56-.48s-.58.19-.58.55v.77c0,.33.26.54.6.54.3,0,.54-.17.54-.48v-.04h.31v.08c0,.47-.39.73-.85.73-.51,0-.92-.28-.92-.8Z"/>
        <path class="cls-1" d="M71.21,26.94h.3l.87,2.36h-.34l-.22-.63h-.94l-.22.63h-.32l.88-2.36ZM71.73,28.41l-.37-1.07h0l-.38,1.07h.76Z"/>
        <path class="cls-1" d="M73.23,28.55v-.79c0-.52.4-.85.91-.85.46,0,.86.26.86.73v.1h-.31v-.07c0-.31-.25-.48-.56-.48s-.58.19-.58.55v.77c0,.33.26.54.6.54.3,0,.54-.17.54-.48v-.04h.31v.08c0,.47-.39.73-.85.73-.51,0-.92-.28-.92-.8Z"/>
        <path class="cls-1" d="M76.08,26.95h.32v2.36h-.32v-2.36Z"/>
        <path class="cls-1" d="M77.5,28.55v-.79c0-.54.43-.86.91-.86.51,0,.92.31.92.83v.76c0,.54-.43.86-.91.86s-.92-.28-.92-.8ZM79.02,28.51v-.79c0-.33-.26-.53-.61-.53-.3,0-.58.19-.58.56v.77c0,.33.26.54.6.54.3,0,.59-.18.59-.55ZM78.58,26.16h.34l-.41.55h-.24l.3-.55Z"/>
        <path class="cls-1" d="M80.44,26.94h.32l1.15,1.8h0v-1.8h.31v2.36h-.32l-1.16-1.82h0v1.82h-.31v-2.36Z"/>
        <path class="cls-1" d="M85.41,28.34l-.77-1.39h.36l.58,1.08.57-1.08h.35l-.77,1.39v.97h-.31v-.97Z"/>
        <path class="cls-1" d="M88.91,26.95h.4l.7,1.46h0l.68-1.46h.4v2.36h-.31v-1.79h0l-.64,1.33h-.26l-.64-1.33h-.01v1.78h-.31v-2.36Z"/>
        <path class="cls-1" d="M92.95,26.94h.3l.87,2.36h-.34l-.22-.63h-.94l-.23.63h-.32l.88-2.36ZM93.47,28.41l-.37-1.07h0l-.38,1.07h.76Z"/>
        <path class="cls-1" d="M95.09,26.95h.87c.45,0,.78.26.78.72,0,.31-.17.6-.54.68l.65.96h-.36l-.63-.93h-.45v.93h-.32v-2.36ZM95.9,28.11c.32,0,.52-.15.52-.45s-.21-.44-.53-.44h-.48v.89h.49Z"/>
        <path class="cls-1" d="M97.84,26.95h.32v1.19l1.08-1.19h.39l-.86.93.93,1.43h-.38l-.76-1.2-.4.41v.78h-.32v-2.36Z"/>
        <path class="cls-1" d="M100.66,26.94h1.56v.29h-1.23v.72h1.05v.28h-1.05v.78h1.24v.29h-1.57v-2.36Z"/>
        <path class="cls-1" d="M103.88,27.23h-.74v-.28h1.8v.28h-.73v2.08h-.32v-2.08Z"/>
        <path class="cls-1" d="M105.93,26.95h.32v2.36h-.32v-2.36Z"/>
        <path class="cls-1" d="M107.41,26.94h.32l1.15,1.8h0v-1.8h.31v2.36h-.32l-1.16-1.82h0v1.82h-.31v-2.36Z"/>
        <path class="cls-1" d="M110.3,28.55v-.8c0-.52.4-.85.91-.85.46,0,.86.25.86.71v.1h-.31v-.06c0-.31-.26-.46-.56-.46s-.58.19-.58.55v.78c0,.33.26.54.6.54.3,0,.55-.16.55-.48v-.2h-.64v-.29h.94v.52c0,.47-.38.73-.86.73-.51,0-.92-.28-.92-.8Z"/>
        <path class="cls-1" d="M114.65,26.95h.89c.5,0,.88.3.88.81v.71c0,.53-.41.83-.87.83h-.89v-2.36ZM115.53,29.02c.31,0,.57-.19.57-.52v-.74c0-.31-.23-.52-.58-.52h-.54v1.79h.55Z"/>
        <path class="cls-1" d="M117.52,26.95h.32v2.36h-.32v-2.36Z"/>
        <path class="cls-1" d="M118.95,28.55v-.8c0-.52.4-.85.91-.85.46,0,.86.25.86.71v.1h-.31v-.06c0-.31-.26-.46-.56-.46s-.58.19-.58.55v.78c0,.33.26.54.6.54.3,0,.55-.16.55-.48v-.2h-.64v-.29h.94v.52c0,.47-.38.73-.86.73-.51,0-.92-.28-.92-.8Z"/>
        <path class="cls-1" d="M121.84,26.95h.32v2.36h-.32v-2.36Z"/>
        <path class="cls-1" d="M123.89,27.23h-.74v-.28h1.8v.28h-.73v2.08h-.32v-2.08Z"/>
        <path class="cls-1" d="M126.33,26.94h.3l.87,2.36h-.34l-.22-.63h-.94l-.23.63h-.32l.88-2.36ZM126.85,28.41l-.37-1.07h0l-.38,1.07h.76Z"/>
        <path class="cls-1" d="M128.48,26.95h.32v2.07h1.2v.29h-1.52v-2.36Z"/>
      </g>
    </g>
  </g>
</svg>