<svg width="40" height="40" viewBox="0 0 40 40" fill="none" xmlns="http://www.w3.org/2000/svg">
<path d="M19.8818 0C8.91817 0 0 8.97248 0 20C0 24.1774 1.27897 28.0599 3.46523 31.269C4.76959 33.187 6.39716 34.8636 8.26714 36.222L16.4442 27.9949V39.6981C17.5616 39.8955 18.7113 40 19.8818 40C21.0522 40 22.2042 39.8978 23.3193 39.6981V27.9949L31.4964 36.2197C33.3687 34.8636 34.9939 33.1847 36.2983 31.269C38.4822 28.0576 39.7635 24.1774 39.7635 20C39.7658 8.97248 30.8454 0 19.8818 0ZM31.3071 26.2487L19.8818 14.7568L8.45875 26.2487C7.4522 24.391 6.87735 22.2617 6.87735 20C6.87735 12.7876 12.7112 6.91745 19.8818 6.91745C27.0523 6.91745 32.8885 12.7876 32.8885 20C32.8885 22.2617 32.3136 24.391 31.3071 26.2487Z" fill="#548054"/>
</svg>
