<svg width="143" height="40" viewBox="0 0 143 40" fill="none" xmlns="http://www.w3.org/2000/svg">
<g clip-path="url(#clip0_236_637)">
<path d="M50.2793 8.01573L50.8287 7.35859C51.3274 7.79281 51.8261 8.03895 52.4725 8.03895C53.0381 8.03895 53.3936 7.77656 53.3936 7.38181V7.36787C53.3936 6.99402 53.1858 6.792 52.2185 6.56676C51.1104 6.2974 50.4871 5.96766 50.4871 5.00401V4.98775C50.4871 4.09143 51.2304 3.46912 52.2647 3.46912C53.0219 3.46912 53.6245 3.70132 54.1532 4.12626L53.6637 4.82056C53.1951 4.46993 52.7264 4.28184 52.2509 4.28184C51.7153 4.28184 51.4036 4.55817 51.4036 4.90183V4.91577C51.4036 5.31981 51.6414 5.49861 52.6387 5.73778C53.7376 6.00714 54.3101 6.40421 54.3101 7.27035V7.28428C54.3101 8.26419 53.5437 8.84703 52.4517 8.84703C51.6552 8.84703 50.9049 8.57071 50.2816 8.00877" fill="#E0B347"/>
<path d="M54.938 6.82691V6.81066C54.938 5.68213 55.8291 4.74634 57.0342 4.74634C58.2393 4.74634 59.1235 5.66588 59.1235 6.7944V6.80834C59.1235 7.9299 58.2324 8.86569 57.0204 8.86569C55.8083 8.86569 54.938 7.94615 54.938 6.82459M58.2231 6.82691V6.81066C58.2231 6.11636 57.7245 5.54049 57.018 5.54049C56.3116 5.54049 55.836 6.10939 55.836 6.79673V6.81066C55.836 7.49799 56.3347 8.08083 57.0319 8.08083C57.7291 8.08083 58.2208 7.50496 58.2208 6.82459" fill="#E0B347"/>
<path d="M59.6915 6.82691V6.81066C59.6915 5.6891 60.5526 4.74634 61.7277 4.74634C62.4711 4.74634 62.9328 5.02266 63.2953 5.4267L62.7366 6.03277C62.4619 5.74018 62.171 5.53816 61.7185 5.53816C61.0651 5.53816 60.5873 6.10707 60.5873 6.7944V6.80834C60.5873 7.51192 61.0698 8.07851 61.7623 8.07851C62.1848 8.07851 62.4988 7.87649 62.7804 7.58391L63.323 8.12263C62.9374 8.55686 62.4826 8.86337 61.7185 8.86337C60.5503 8.86337 59.6892 7.94383 59.6892 6.82227" fill="#E0B347"/>
<path d="M63.9556 3.36694H64.9229V4.22611H63.9556V3.36694ZM63.9925 4.83217H64.8929V8.77969H63.9925V4.83217Z" fill="#E0B347"/>
<path d="M65.6917 6.81994V6.80369C65.6917 5.67516 66.4881 4.74866 67.6101 4.74866C68.8591 4.74866 69.4916 5.73554 69.4916 6.87335C69.4916 6.95462 69.4847 7.03822 69.4778 7.12646H66.5943C66.6913 7.76967 67.1438 8.12959 67.7232 8.12959C68.1619 8.12959 68.4735 7.96473 68.7852 7.65821L69.3139 8.12959C68.9422 8.57775 68.4297 8.87033 67.7071 8.87033C66.5689 8.87033 65.6917 8.04135 65.6917 6.82227M68.5982 6.52969C68.5382 5.94685 68.1965 5.4894 67.6009 5.4894C67.0514 5.4894 66.6636 5.91666 66.5828 6.52969H68.5982Z" fill="#E0B347"/>
<path d="M70.0757 6.81295V6.79902C70.0757 5.49169 70.9599 4.75095 71.8972 4.75095C72.5436 4.75095 72.9522 5.08068 73.2362 5.44525V3.32288H74.1365V8.78207H73.2362V8.12492C72.9453 8.53593 72.5367 8.86566 71.8972 8.86566C70.976 8.86566 70.0757 8.12492 70.0757 6.81759M73.25 6.81295V6.79902C73.25 6.03738 72.7144 5.53581 72.1119 5.53581C71.5093 5.53581 70.983 6.01416 70.983 6.79902V6.81295C70.983 7.57459 71.5024 8.07616 72.1119 8.07616C72.7213 8.07616 73.25 7.56762 73.25 6.81295Z" fill="#E0B347"/>
<path d="M77.5623 8.77975V8.29443C77.2945 8.6172 76.8859 8.86334 76.2903 8.86334C75.5469 8.86334 74.8936 8.4384 74.8936 7.64425V7.628C74.8936 6.75258 75.57 6.3346 76.4842 6.3346C76.9598 6.3346 77.2645 6.40194 77.5692 6.49947V6.42517C77.5692 5.87948 77.2276 5.57993 76.6042 5.57993C76.1656 5.57993 75.8378 5.67746 75.4822 5.82607L75.2375 5.10158C75.6692 4.90653 76.0917 4.77185 76.7312 4.77185C77.8901 4.77185 78.4557 5.38488 78.4557 6.4391V8.77975H77.5646H77.5623ZM77.5831 7.12643C77.3522 7.03587 77.0336 6.96853 76.6827 6.96853C76.1171 6.96853 75.7824 7.20074 75.7824 7.58156V7.59549C75.7824 7.96934 76.1171 8.17833 76.5396 8.17833C77.1352 8.17833 77.5808 7.84163 77.5808 7.34935V7.12411L77.5831 7.12643Z" fill="#E0B347"/>
<path d="M79.2153 6.81295V6.79902C79.2153 5.49169 80.0995 4.75095 81.0368 4.75095C81.6832 4.75095 82.0919 5.08068 82.3758 5.44525V3.32288H83.2762V8.78207H82.3758V8.12492C82.0849 8.53593 81.6763 8.86566 81.0368 8.86566C80.1157 8.86566 79.2153 8.12492 79.2153 6.81759M82.3897 6.81295V6.79902C82.3897 6.03738 81.8541 5.53581 81.2515 5.53581C80.649 5.53581 80.1226 6.01416 80.1226 6.79902V6.81295C80.1226 7.57459 80.6421 8.07616 81.2515 8.07616C81.861 8.07616 82.3897 7.56762 82.3897 6.81295Z" fill="#E0B347"/>
<path d="M86.2913 6.81295V6.79902C86.2913 5.49169 87.1755 4.75095 88.1128 4.75095C88.7592 4.75095 89.1678 5.08068 89.4517 5.44525V3.32288H90.3521V8.78207H89.4517V8.12492C89.1609 8.53593 88.7522 8.86566 88.1128 8.86566C87.1916 8.86566 86.2913 8.12492 86.2913 6.81759M89.4656 6.81295V6.79902C89.4656 6.03738 88.93 5.53581 88.3275 5.53581C87.7249 5.53581 87.1985 6.01416 87.1985 6.79902V6.81295C87.1985 7.57459 87.718 8.07616 88.3275 8.07616C88.9369 8.07616 89.4656 7.56762 89.4656 6.81295Z" fill="#E0B347"/>
<path d="M91.1462 6.81994V6.80369C91.1462 5.67516 91.9427 4.74866 93.0647 4.74866C94.3137 4.74866 94.9462 5.73554 94.9462 6.87335C94.9462 6.95462 94.9393 7.03822 94.9324 7.12646H92.0489C92.1459 7.76967 92.5984 8.12959 93.1778 8.12959C93.6165 8.12959 93.9281 7.96473 94.2398 7.65821L94.7685 8.12959C94.3968 8.57775 93.8843 8.87033 93.1617 8.87033C92.0235 8.87033 91.1462 8.04135 91.1462 6.82227M94.0528 6.52969C93.9928 5.94685 93.6511 5.4894 93.0555 5.4894C92.506 5.4894 92.1182 5.91666 92.0374 6.52969H94.0528Z" fill="#E0B347"/>
<path d="M50.2793 11.2714H54.9058C57.6114 11.2714 59.3637 12.6785 59.3637 15.0587V15.0889C59.3637 17.6547 57.4129 18.9992 54.7534 18.9992H53.262V22.0922H50.2793V11.269V11.2714ZM54.6911 16.6516C55.7369 16.6516 56.3971 16.0804 56.3971 15.2305V15.2003C56.3971 14.2738 55.7369 13.7931 54.6749 13.7931H53.2597V16.6539H54.6887L54.6911 16.6516Z" fill="#E0B347"/>
<path d="M60.2063 13.7304H63.1267V15.4162C63.6023 14.2714 64.371 13.5307 65.7562 13.5911V16.6841H65.5092C63.9878 16.6841 63.1267 17.5665 63.1267 19.4822V22.0945H60.2063V13.7304Z" fill="#E0B347"/>
<path d="M66.2571 17.952V17.9218C66.2571 15.5417 68.194 13.547 70.8535 13.547C73.513 13.547 75.4338 15.5091 75.4338 17.8916V17.9218C75.4338 20.3019 73.4969 22.2966 70.8235 22.2966C68.1501 22.2966 66.2594 20.3321 66.2594 17.952M72.6058 17.952V17.9218C72.6058 16.8861 71.8532 16.02 70.8235 16.02C69.7939 16.02 69.0874 16.8699 69.0874 17.8916V17.9218C69.0874 18.9412 69.8262 19.8073 70.8558 19.8073C71.8855 19.8073 72.6081 18.9574 72.6081 17.952" fill="#E0B347"/>
<path d="M76.2004 17.952V17.9218C76.2004 15.2003 77.9065 13.547 79.8734 13.547C81.1339 13.547 81.8727 14.1182 82.4106 14.7521V11.2737H85.331V22.0969H82.4106V20.9846C81.8427 21.6812 81.1339 22.2826 79.8896 22.2826C77.9065 22.2826 76.2004 20.6293 76.2004 17.9543M82.4706 17.9194V17.8893C82.4706 16.7909 81.718 15.9875 80.7646 15.9875C79.8111 15.9875 79.0585 16.777 79.0585 17.8893V17.9194C79.0585 19.0317 79.8273 19.8212 80.7646 19.8212C81.7019 19.8212 82.4706 19.0317 82.4706 17.9194Z" fill="#E0B347"/>
<path d="M86.8337 19.1873V13.7305H89.7541V18.2608C89.7541 19.1734 90.2297 19.668 90.9385 19.668C91.6472 19.668 92.1689 19.1734 92.1689 18.2608V13.7305H95.0732V22.0946H92.1689V20.9359C91.631 21.6325 90.8623 22.2803 89.678 22.2803C87.9096 22.2803 86.8337 21.0891 86.8337 19.1873Z" fill="#E0B347"/>
<path d="M96.1975 17.9519V17.9218C96.1975 15.5556 98.0121 13.5609 100.639 13.5609C102.345 13.5609 103.483 14.304 104.19 15.4162L102.223 16.9001C101.807 16.359 101.362 16.0177 100.672 16.0177C99.7181 16.0177 99.0279 16.8675 99.0279 17.8893V17.9194C99.0279 19.0015 99.7043 19.8212 100.688 19.8212C101.394 19.8212 101.84 19.4961 102.285 18.9551L104.236 20.3762C103.467 21.521 102.362 22.2942 100.547 22.2942C98.0259 22.2942 96.1975 20.3158 96.1975 17.9496" fill="#E0B347"/>
<path d="M105.146 19.4985V11.2737H108.05V13.7328H109.987V16.0827H108.05V18.9272C108.05 19.5147 108.311 19.7632 108.849 19.7632C109.232 19.7632 109.601 19.654 109.954 19.4845V21.7718C109.433 22.0667 108.74 22.2664 107.925 22.2664C106.173 22.2664 105.143 21.4931 105.143 19.4985" fill="#E0B347"/>
<path d="M110.703 17.952V17.9218C110.703 15.5417 112.64 13.547 115.299 13.547C117.959 13.547 119.879 15.5091 119.879 17.8916V17.9218C119.879 20.3019 117.942 22.2966 115.269 22.2966C112.596 22.2966 110.705 20.3321 110.705 17.952M117.051 17.952V17.9218C117.051 16.8861 116.299 16.02 115.269 16.02C114.239 16.02 113.533 16.8699 113.533 17.8916V17.9218C113.533 18.9412 114.272 19.8073 115.301 19.8073C116.331 19.8073 117.054 18.9574 117.054 17.952" fill="#E0B347"/>
<path d="M120.782 13.7304H123.702V15.4162C124.178 14.2714 124.947 13.5307 126.329 13.5911V16.6841H126.082C124.561 16.6841 123.7 17.5665 123.7 19.4822V22.0945H120.78V13.7304H120.782Z" fill="#E0B347"/>
<path d="M126.842 17.952V17.9218C126.842 15.479 128.578 13.547 131.039 13.547C133.897 13.547 135.22 15.6647 135.22 18.1238C135.22 18.3096 135.22 18.5255 135.204 18.7275H129.64C129.871 19.6401 130.531 20.1045 131.438 20.1045C132.145 20.1045 132.683 19.8421 133.283 19.2546L134.897 20.5991C134.098 21.6208 132.946 22.2989 131.3 22.2989C128.687 22.2989 126.842 20.5364 126.842 17.9543M132.498 17.2252C132.39 16.2987 131.838 15.7088 131.037 15.7088C130.236 15.7088 129.746 16.2963 129.592 17.2252H132.496H132.498Z" fill="#E0B347"/>
<path d="M135.684 21.0287L136.776 19.2662C137.73 19.9002 138.759 20.2253 139.62 20.2253C140.128 20.2253 140.373 20.0697 140.373 19.7771V19.7469C140.373 19.4056 139.897 19.2686 139.02 19.0201C137.376 18.5882 136.07 18.0309 136.07 16.3613V16.3311C136.07 14.5524 137.485 13.5632 139.406 13.5632C140.62 13.5632 141.88 13.9185 142.834 14.5385L141.834 16.3938C140.973 15.8992 140.036 15.6043 139.376 15.6043C138.93 15.6043 138.699 15.7738 138.699 16.0223V16.0525C138.699 16.3776 139.191 16.5308 140.052 16.7956C141.696 17.26 143.002 17.8312 143.002 19.4543V19.4845C143.002 21.3236 141.633 22.2826 139.606 22.2826C138.207 22.2826 136.825 21.8646 135.686 21.031" fill="#E0B347"/>
<path d="M50.2793 25.2177H58.8881V27.8462H53.262V29.6853H58.3502V32.1746H53.262V36.0408H50.2793V25.2177Z" fill="#E0B347"/>
<path d="M59.3127 31.8959V31.8657C59.3127 29.4856 61.2497 27.491 63.9092 27.491C66.5687 27.491 68.4895 29.4531 68.4895 31.8356V31.8657C68.4895 34.2459 66.5525 36.2405 63.8792 36.2405C61.2058 36.2405 59.315 34.2761 59.315 31.8959M65.6614 31.8959V31.8657C65.6614 30.8301 64.9088 29.964 63.8792 29.964C62.8495 29.964 62.1431 30.8139 62.1431 31.8356V31.8657C62.1431 32.8851 62.8819 33.7513 63.9115 33.7513C64.9411 33.7513 65.6637 32.9014 65.6637 31.8959" fill="#E0B347"/>
<path d="M69.42 27.6768H72.3404V29.3626C72.816 28.2179 73.5848 27.4771 74.9676 27.5375V30.6305H74.7206C73.1992 30.6305 72.3381 31.5106 72.3381 33.4286V36.0409H69.4177V27.6768H69.42Z" fill="#E0B347"/>
<path d="M75.6394 31.8959V31.8657C75.6394 29.4229 77.3755 27.491 79.8365 27.491C82.6945 27.491 84.0174 29.6087 84.0174 32.0678C84.0174 32.2535 84.0173 32.4695 84.0012 32.6715H78.4374C78.6683 33.5841 79.3286 34.0462 80.2358 34.0462C80.9423 34.0462 81.4802 33.7838 82.0804 33.1963L83.6941 34.5408C82.8954 35.5602 81.7434 36.2405 80.0973 36.2405C77.484 36.2405 75.6394 34.4781 75.6394 31.8959ZM81.2955 31.1691C81.187 30.2426 80.6352 29.6551 79.8341 29.6551C79.0331 29.6551 78.5436 30.2426 78.389 31.1691H81.2932H81.2955Z" fill="#E0B347"/>
<path d="M84.6428 34.9727L85.7348 33.2102C86.6882 33.8441 87.7179 34.1692 88.579 34.1692C89.0869 34.1692 89.3316 34.0136 89.3316 33.7211V33.6909C89.3316 33.3519 88.856 33.2125 87.9788 32.9641C86.335 32.5322 85.0284 31.9749 85.0284 30.3053V30.2751C85.0284 28.4964 86.4435 27.5072 88.3643 27.5072C89.5786 27.5072 90.8391 27.8625 91.7926 28.4825L90.793 30.3378C89.9318 29.8432 88.9946 29.5483 88.3343 29.5483C87.8887 29.5483 87.6579 29.7178 87.6579 29.9663V29.9965C87.6579 30.3216 88.1496 30.4748 89.0107 30.7395C90.6544 31.2039 91.9611 31.7752 91.9611 33.3983V33.4285C91.9611 35.2676 90.5921 36.2266 88.5652 36.2266C87.1661 36.2266 85.7833 35.8086 84.6451 34.975" fill="#E0B347"/>
<path d="M93.037 33.4424V25.2177H95.9412V27.6767H97.8781V30.0267H95.9412V32.8712C95.9412 33.4587 96.2021 33.7071 96.74 33.7071C97.1232 33.7071 97.4926 33.598 97.8458 33.4285V35.7157C97.3241 36.0106 96.6315 36.2103 95.8165 36.2103C94.0643 36.2103 93.0347 35.4371 93.0347 33.4424" fill="#E0B347"/>
<path d="M98.9724 33.6445V33.6143C98.9724 31.8681 100.279 30.9857 102.23 30.9857C102.999 30.9857 103.751 31.1251 104.229 31.3108V31.1715C104.229 30.2914 103.691 29.7945 102.569 29.7945C101.692 29.7945 101.016 29.9803 100.263 30.2589L99.6627 28.2039C100.6 27.8184 101.6 27.5537 103.029 27.5537C104.458 27.5537 105.533 27.909 106.196 28.5731C106.826 29.1908 107.087 30.0569 107.087 31.2319V36.0409H104.213V35.1608C103.629 35.7947 102.846 36.2266 101.754 36.2266C100.171 36.2266 98.9724 35.3001 98.9724 33.6445ZM104.261 33.0106V32.6228C103.954 32.4997 103.539 32.4068 103.109 32.4068C102.264 32.4068 101.773 32.8086 101.773 33.4425V33.4727C101.773 34.0439 102.202 34.3852 102.802 34.3852C103.664 34.3852 104.264 33.8442 104.264 33.0106" fill="#E0B347"/>
<path d="M111.485 25.2177H108.581V36.0408H111.485V25.2177Z" fill="#E0B347"/>
<path d="M112.642 31.8959V31.8657C112.642 29.4229 114.378 27.491 116.839 27.491C119.697 27.491 121.02 29.6087 121.02 32.0678C121.02 32.2535 121.02 32.4695 121.004 32.6715H115.44C115.671 33.5841 116.331 34.0462 117.238 34.0462C117.945 34.0462 118.483 33.7838 119.083 33.1963L120.697 34.5408C119.898 35.5602 118.746 36.2405 117.1 36.2405C114.486 36.2405 112.642 34.4781 112.642 31.8959ZM118.298 31.1691C118.189 30.2426 117.638 29.6551 116.837 29.6551C116.036 29.6551 115.546 30.2426 115.391 31.1691H118.296H118.298Z" fill="#E0B347"/>
<path d="M121.645 34.9727L122.737 33.2102C123.691 33.8441 124.72 34.1692 125.581 34.1692C126.089 34.1692 126.334 34.0136 126.334 33.7211V33.6909C126.334 33.3519 125.858 33.2125 124.981 32.9641C123.337 32.5322 122.031 31.9749 122.031 30.3053V30.2751C122.031 28.4964 123.446 27.5072 125.367 27.5072C126.581 27.5072 127.842 27.8625 128.795 28.4825L127.795 30.3378C126.934 29.8432 125.997 29.5483 125.337 29.5483C124.891 29.5483 124.66 29.7178 124.66 29.9663V29.9965C124.66 30.3216 125.152 30.4748 126.013 30.7395C127.657 31.2039 128.964 31.7752 128.964 33.3983V33.4285C128.964 35.2676 127.595 36.2266 125.568 36.2266C124.169 36.2266 122.786 35.8086 121.648 34.975" fill="#E0B347"/>
<path d="M19.8818 0C8.91817 0 0 8.97248 0 20C0 24.1774 1.27897 28.0599 3.46523 31.269C4.76959 33.187 6.39716 34.8636 8.26714 36.222L16.4442 27.9949V39.6981C17.5616 39.8955 18.7113 40 19.8818 40C21.0522 40 22.2042 39.8978 23.3193 39.6981V27.9949L31.4964 36.2197C33.3687 34.8636 34.9939 33.1847 36.2983 31.269C38.4822 28.0576 39.7635 24.1774 39.7635 20C39.7658 8.97248 30.8454 0 19.8818 0ZM31.3071 26.2487L19.8818 14.7568L8.45875 26.2487C7.4522 24.391 6.87735 22.2617 6.87735 20C6.87735 12.7876 12.7112 6.91745 19.8818 6.91745C27.0523 6.91745 32.8885 12.7876 32.8885 20C32.8885 22.2617 32.3136 24.391 31.3071 26.2487Z" fill="#548054"/>
</g>
<defs>
<clipPath id="clip0_236_637">
<rect width="143" height="40" fill="white"/>
</clipPath>
</defs>
</svg>
